<svg xmlns="http://www.w3.org/2000/svg" width="500" height="500" viewBox="0 0 500 500" version="1.1">
	<path d="M 186.657 181.487 C 177.173 184.772, 165 193.242, 165 196.556 C 165 197.297, 167.041 199.308, 169.535 201.024 L 174.071 204.145 177.572 201.071 C 184.443 195.038, 190.602 192.676, 200.701 192.200 C 209.286 191.795, 210.328 191.965, 216.266 194.744 C 224.987 198.825, 229.400 204.241, 244.587 229.500 C 264.359 262.384, 267.287 265.893, 279.836 271.739 C 295.480 279.028, 317.694 276.002, 330.371 264.856 L 334.241 261.452 328.927 257.733 C 323.991 254.277, 323.468 254.121, 321.557 255.540 C 309.133 264.767, 291.062 265.268, 279.825 256.697 C 273.731 252.049, 269.933 246.667, 254.312 220.543 C 236.032 189.971, 230.809 184.699, 214.505 180.357 C 206.556 178.240, 194.637 178.723, 186.657 181.487 M 286.465 180.473 C 280.783 182.269, 272.842 186.421, 269.156 189.522 C 267.435 190.970, 263.103 195.944, 259.528 200.575 L 253.028 208.996 255.510 213.248 C 260.037 221.001, 259.738 220.794, 262.247 217.922 C 263.486 216.504, 267.091 212.004, 270.258 207.922 C 276.284 200.155, 282.840 195.029, 289.368 192.981 C 295.410 191.085, 309.539 192.145, 314.849 194.892 C 321.709 198.441, 327.452 204.388, 330.433 211.029 C 334.896 220.975, 336.035 220.456, 308.987 220.790 L 285.500 221.079 281.252 227.040 L 277.005 233 311.502 233 L 346 233 345.989 224.750 C 345.972 211.972, 342.408 202.558, 334.309 193.899 C 324.759 183.690, 313.449 178.951, 299 179.107 C 294.325 179.157, 288.684 179.772, 286.465 180.473 M 175.946 223.832 C 171.024 226.967, 164.901 233.357, 162.653 237.703 C 160.309 242.237, 159.651 249.378, 161.044 255.182 C 162.036 259.317, 163.394 261.525, 167.433 265.563 C 174.937 273.068, 181.417 275.342, 195.552 275.431 C 206.338 275.498, 206.783 275.411, 214.052 271.814 C 222.582 267.592, 224.645 265.621, 236.369 250.500 L 244.896 239.500 242.321 235 C 237.815 227.127, 238.191 227.045, 229.971 237.675 C 213.995 258.334, 209.374 261.954, 197.938 262.772 C 188.871 263.421, 182.785 261.667, 177.866 256.987 C 174.335 253.629, 174 252.854, 174 248.056 C 174 245.166, 174.773 241.159, 175.717 239.151 C 178.110 234.060, 185.616 227.007, 192.066 223.787 L 197.500 221.074 188.946 221.037 C 181.233 221.004, 179.954 221.279, 175.946 223.832 M 231 303.500 C 231 316.611, 231.231 319, 232.500 319 C 233.769 319, 234 316.611, 234 303.500 C 234 290.389, 233.769 288, 232.500 288 C 231.231 288, 231 290.389, 231 303.500 M 298 296.430 C 298 298.106, 297.366 298.960, 295.960 299.180 C 293.168 299.618, 292.996 301.428, 295.711 301.814 C 297.758 302.106, 297.943 302.734, 298.211 310.314 L 298.500 318.500 302.250 318.810 C 304.421 318.990, 306 318.674, 306 318.060 C 306 317.477, 304.923 317, 303.607 317 C 300.632 317, 300 315.410, 300 307.918 C 300 302.009, 300.005 302, 303 302 C 305 302, 306 301.500, 306 300.500 C 306 299.500, 305 299, 303 299 C 300.467 299, 300 298.611, 300 296.500 C 300 295.125, 299.550 294, 299 294 C 298.450 294, 298 295.094, 298 296.430 M 360 302.567 C 360 306.833, 359.851 307.091, 357.750 306.475 L 355.500 305.815 357.750 307.464 C 360.252 309.298, 360.863 314.737, 358.800 316.800 C 356.665 318.935, 352.192 318.223, 350.381 315.459 C 348.358 312.371, 349.684 308.464, 353.242 307.034 C 355.418 306.160, 355.424 306.124, 353.405 306.063 C 348.744 305.922, 346.442 312.331, 349.557 316.777 C 351.292 319.256, 356.742 319.858, 358.800 317.800 C 359.733 316.867, 360 316.867, 360 317.800 C 360 318.460, 360.450 319, 361 319 C 361.603 319, 362 314.833, 362 308.500 C 362 302.167, 361.603 298, 361 298 C 360.450 298, 360 300.055, 360 302.567 M 111.250 300.220 C 107.865 301.853, 108.511 303.271, 112.250 302.415 C 116.507 301.440, 118.840 301.622, 120.580 303.066 C 123.300 305.324, 122.091 306.711, 116.863 307.330 C 109.035 308.257, 105.799 312.607, 109.336 317.445 C 110.920 319.611, 118.116 319.978, 120.483 318.014 C 121.524 317.150, 122 317.108, 122 317.878 C 122 318.495, 122.733 319, 123.628 319 C 125.039 319, 125.194 317.906, 124.784 310.835 C 124.382 303.880, 123.976 302.399, 122.045 300.835 C 119.548 298.813, 114.736 298.539, 111.250 300.220 M 138.357 299.992 C 135.065 301.320, 133 305.018, 133 309.586 C 133 316.138, 137.693 319.850, 145 319.079 C 147.645 318.799, 151 316.704, 151 315.331 C 151 313.630, 149.996 313.688, 147.559 315.532 C 144.821 317.603, 140.354 317.354, 138 315 C 134.034 311.034, 135.274 310, 144 310 L 152 310 152 307.089 C 152 301.433, 144.480 297.521, 138.357 299.992 M 162.693 299.700 C 160.375 300.301, 158.682 304.610, 159.906 306.797 C 160.411 307.698, 163 309.162, 165.662 310.049 C 169.188 311.225, 170.585 312.241, 170.815 313.796 C 171.256 316.784, 166.628 317.897, 162.829 315.716 C 161.009 314.672, 159.823 314.478, 159.404 315.155 C 158.274 316.984, 161.540 319.088, 165.771 319.256 C 170.498 319.445, 174 316.981, 174 313.467 C 174 310.631, 172.296 309.248, 166.859 307.674 C 163.749 306.774, 162.500 305.885, 162.500 304.571 C 162.500 301.966, 166.179 300.861, 169.358 302.511 C 172.550 304.167, 174.268 302.401, 171.462 300.348 C 169.651 299.024, 166.266 298.774, 162.693 299.700 M 184.379 300.911 C 179.263 304.030, 178.730 311.769, 183.289 316.750 C 184.920 318.531, 186.433 319, 190.552 319 C 193.994 319, 196.183 318.484, 197.020 317.476 C 198.734 315.411, 197.369 314.288, 194.968 315.788 C 191.622 317.878, 187.353 317.264, 185.073 314.365 C 179.562 307.360, 186.203 298.468, 193.952 302.475 C 197.510 304.315, 198.977 302.798, 195.794 300.568 C 192.782 298.459, 188.173 298.597, 184.379 300.911 M 207.750 300.080 C 204.698 301.858, 205.832 302.551, 211.750 302.525 C 216.961 302.502, 217.530 302.711, 217.820 304.750 C 218.092 306.668, 217.682 307, 215.037 307 C 210.558 307, 205.301 309.476, 204.513 311.958 C 203.615 314.788, 206.393 318.966, 209.273 319.115 C 213.054 319.311, 215.440 318.854, 216.913 317.652 C 217.988 316.775, 218.426 316.798, 218.746 317.750 C 218.977 318.438, 219.579 319, 220.083 319 C 221.167 319, 221.304 304.001, 220.235 302.400 C 218.169 299.306, 211.277 298.026, 207.750 300.080 M 246.250 300.220 C 245.012 300.817, 244 301.660, 244 302.094 C 244 303.420, 245.823 304.096, 246.490 303.016 C 247.364 301.603, 254.340 301.740, 255.800 303.200 C 258.122 305.522, 256.976 306.724, 251.863 307.330 C 245.875 308.039, 243 310.214, 243 314.033 C 243 317.645, 245.174 319.273, 250 319.273 C 252.182 319.273, 254.649 318.706, 255.483 318.014 C 256.524 317.150, 257 317.108, 257 317.878 C 257 318.495, 257.675 319, 258.500 319 C 259.701 319, 260 317.495, 260 311.455 C 260 304.777, 259.718 303.627, 257.545 301.455 C 254.885 298.794, 250.256 298.289, 246.250 300.220 M 269.723 299.611 C 269.325 300.008, 269 304.533, 269 309.667 C 269 317.296, 269.274 319, 270.500 319 C 271.668 319, 272 317.659, 272 312.934 C 272 305.897, 273.113 303.288, 276.696 301.926 C 278.628 301.191, 279.860 301.333, 281.635 302.496 C 283.773 303.897, 284 304.765, 284 311.523 C 284 317.503, 284.300 319, 285.500 319 C 286.707 319, 287 317.453, 287 311.073 C 287 303.700, 286.816 303, 284.365 301.073 C 281.313 298.672, 277.322 298.441, 274.592 300.507 C 272.922 301.772, 272.546 301.761, 271.565 300.420 C 270.949 299.577, 270.120 299.213, 269.723 299.611 M 317.500 300.161 C 311.616 303.397, 310.207 310.716, 314.489 315.805 C 315.858 317.432, 318.164 318.989, 319.613 319.266 C 323.095 319.932, 328.964 318.257, 329.679 316.395 C 330.569 314.076, 329.344 313.646, 326.842 315.398 C 323.720 317.585, 319.410 317.410, 317 315 C 313.034 311.034, 314.274 310, 323 310 L 331 310 330.985 307.250 C 330.967 304.001, 330.336 302.956, 327.027 300.692 C 324.210 298.764, 320.424 298.553, 317.500 300.161 M 140.028 302.123 C 137.391 303.165, 136.040 304.723, 136.015 306.750 C 136.005 307.623, 137.958 308, 142.500 308 C 148.192 308, 149 307.767, 149 306.122 C 149 302.647, 144.160 300.489, 140.028 302.123 M 320 301.719 C 317.642 302.571, 315 305.179, 315 306.655 C 315 307.644, 316.722 308, 321.500 308 C 327.192 308, 328 307.767, 328 306.122 C 328 303.091, 323.326 300.519, 320 301.719 M 370.235 306.037 C 365.201 308.059, 365.414 317.313, 370.525 318.596 C 373.783 319.413, 377.271 318.720, 377.787 317.153 C 378.146 316.064, 377.808 316.032, 376.023 316.988 C 372.907 318.655, 369.153 317.458, 368.427 314.564 C 367.510 310.913, 368.273 308.605, 370.756 307.513 C 371.990 306.970, 373 306.182, 373 305.763 C 373 304.879, 373.156 304.863, 370.235 306.037 M 375.977 307.977 C 377.066 309.066, 377.692 310.639, 377.370 311.477 C 377.049 312.315, 377.284 313, 377.893 313 C 378.502 313, 379 312.132, 379 311.071 C 379 309.064, 376.540 306, 374.929 306 C 374.418 306, 374.890 306.890, 375.977 307.977 M 383.584 309.750 C 384.470 311.813, 385.652 314.758, 386.211 316.295 C 387.327 319.366, 389.326 319.434, 389.804 316.417 C 390.038 314.938, 389.891 314.817, 389.161 315.885 C 388.063 317.493, 387.075 316.019, 385.054 309.750 C 384.389 307.688, 383.424 306, 382.909 306 C 382.394 306, 382.698 307.688, 383.584 309.750 M 391.109 309.575 C 390.398 311.541, 390.072 313.405, 390.385 313.718 C 390.697 314.031, 391.225 313.434, 391.558 312.393 C 391.891 311.352, 392.566 309.488, 393.060 308.250 C 393.553 307.012, 393.607 306, 393.179 306 C 392.752 306, 391.820 307.609, 391.109 309.575 M 114.009 310.290 C 111.157 311.733, 110.162 314.854, 112.152 316.115 C 116.136 318.640, 122 315.697, 122 311.171 C 122 309.466, 121.410 309.003, 119.250 309.015 C 117.737 309.023, 115.379 309.597, 114.009 310.290 M 211.095 309.872 C 205.531 311.429, 206.278 317, 212.051 317 C 215.501 317, 218 314.660, 218 311.429 C 218 308.853, 216.193 308.446, 211.095 309.872 M 249.009 310.290 C 246.157 311.733, 245.162 314.854, 247.152 316.115 C 251.136 318.640, 257 315.697, 257 311.171 C 257 309.466, 256.410 309.003, 254.250 309.015 C 252.738 309.023, 250.379 309.597, 249.009 310.290 M 372.813 312.683 C 373.534 312.972, 374.397 312.936, 374.729 312.604 C 375.061 312.272, 374.471 312.036, 373.417 312.079 C 372.252 312.127, 372.015 312.364, 372.813 312.683 M 339 317.500 C 339 318.530, 339.655 319.020, 340.750 318.810 C 342.858 318.404, 342.725 316.629, 340.553 316.177 C 339.647 315.988, 339 316.539, 339 317.500" stroke="none" fill="black" fill-rule="evenodd"/>
</svg>