<svg xmlns="http://www.w3.org/2000/svg" width="217" height="113" viewBox="0 0 217 113" version="1.1">
	<path d="M 45.691 17.501 C 35.766 20.229, 21 29.815, 21 33.530 C 21 34.286, 23.041 36.308, 25.535 38.024 L 30.071 41.145 33.572 38.071 C 48.141 25.279, 69.648 25.631, 82.496 38.869 C 84.664 41.103, 92.077 52.289, 98.969 63.728 C 116.606 93, 120.467 98.533, 126.361 102.981 C 140.103 113.352, 158.360 115.582, 174.500 108.862 C 178.350 107.259, 183.457 104.254, 185.848 102.184 L 190.197 98.421 184.905 94.717 C 180.023 91.299, 179.454 91.128, 177.557 92.505 C 169.729 98.186, 165.707 99.490, 156 99.495 C 147.619 99.499, 145.830 99.171, 140.810 96.706 C 132.283 92.519, 127.058 85.889, 111 58.885 C 92.133 27.156, 86.898 21.790, 70.500 17.371 C 64.264 15.691, 52.043 15.755, 45.691 17.501 M 143 17.431 C 131.766 20.557, 125.678 24.939, 116.429 36.556 L 109.023 45.860 112.222 51.430 C 113.982 54.493, 115.705 57, 116.051 57 C 116.398 57, 120.226 52.495, 124.559 46.989 C 134.685 34.119, 139.476 30.828, 150.803 28.961 C 165.145 26.598, 179.923 34.348, 186.155 47.500 C 187.719 50.800, 188.999 54.513, 188.999 55.750 L 189 58 165.250 58.027 L 141.500 58.053 137.252 64.027 L 133.005 70 167.502 70 L 202 70 201.988 62.250 C 201.982 57.987, 201.354 52.162, 200.593 49.306 C 196.527 34.033, 183.818 21.769, 167.500 17.371 C 161.360 15.716, 149.054 15.747, 143 17.431 M 31.932 60.828 C 14.305 72.007, 11.076 92.349, 25.032 104.296 C 31.837 110.120, 39.689 112.493, 52 112.444 C 61.210 112.408, 63.212 112.075, 68.300 109.734 C 71.490 108.266, 75.441 106.110, 77.080 104.943 C 79.378 103.307, 91.598 88.725, 100.139 77.428 C 100.610 76.806, 99.456 73.969, 97.387 70.661 L 93.824 64.965 83.683 77.733 C 72.253 92.124, 70.158 94.252, 64.500 97.219 C 58.965 100.121, 47.864 100.780, 41.291 98.596 C 22.777 92.447, 27.051 71.033, 48.933 60.302 L 53.500 58.063 44.946 58.031 C 37.246 58.003, 35.946 58.282, 31.932 60.828" stroke="none" fill="black" fill-rule="evenodd"/>
</svg>